<?xml version="1.0" encoding="UTF-8" standalone="no"?>
<svg
   xmlns:dc="http://purl.org/dc/elements/1.1/"
   xmlns:cc="http://creativecommons.org/ns#"
   xmlns:rdf="http://www.w3.org/1999/02/22-rdf-syntax-ns#"
   xmlns:svg="http://www.w3.org/2000/svg"
   xmlns="http://www.w3.org/2000/svg"
   xmlns:sodipodi="http://sodipodi.sourceforge.net/DTD/sodipodi-0.dtd"
   xmlns:inkscape="http://www.inkscape.org/namespaces/inkscape"
   id="svg35"
   version="1.1"
   viewBox="0 0 18 8"
   height="8mm"
   width="18mm"
   sodipodi:docname="nano.svg"
   inkscape:version="0.92.2 (5c3e80d, 2017-08-06)">
  <sodipodi:namedview
     pagecolor="#ffffff"
     bordercolor="#666666"
     borderopacity="1"
     objecttolerance="10"
     gridtolerance="10"
     guidetolerance="10"
     inkscape:pageopacity="0"
     inkscape:pageshadow="2"
     inkscape:window-width="808"
     inkscape:window-height="480"
     id="namedview8"
     showgrid="false"
     inkscape:zoom="3.3638608"
     inkscape:cx="31.342739"
     inkscape:cy="21.237718"
     inkscape:window-x="0"
     inkscape:window-y="26"
     inkscape:window-maximized="0"
     inkscape:current-layer="svg35" />
  <defs
     id="defs29" />
  <metadata
     id="metadata32">
    <rdf:RDF>
      <cc:Work
         rdf:about="">
        <dc:format>image/svg+xml</dc:format>
        <dc:type
           rdf:resource="http://purl.org/dc/dcmitype/StillImage" />
        <dc:title></dc:title>
      </cc:Work>
    </rdf:RDF>
  </metadata>
  <g
     transform="translate(-0.72291975,-0.4341319)"
     id="layer1">
    <circle
       style="stroke-width:0.26458332"
       id="circle4"
       r="1.2700001"
       cy="7.0544624"
       cx="2.1790407"
       class="st0" />
    <path
       inkscape:connector-curvature="0"
       style="stroke-width:0.26458332"
       id="path6"
       d="m 17.313196,0.75738106 c -0.68791,0 -1.27,0.55562544 -1.27,1.27000044 0,1.005417 -0.15875,1.27 -1.27,1.27 h -0.10583 c -0.635,0.05292 -1.13771,0.582083 -1.13771,1.243542 v 0.02646 c 0,0.978958 -0.18521,1.217083 -1.27,1.217083 -0.0529,0 -0.10583,0 -0.13229,0.02646 -0.635,0.07937 -1.13771,0.608542 -1.13771,1.243542 0,0.687917 0.55563,1.27 1.27,1.27 0.66146,0 1.21708,-0.529167 1.24354,-1.164167 v -0.105833 c 0,-0.899583 0.29104,-1.243541 1.24354,-1.27 h 0.0265 c 0.66146,0 1.21709,-0.529166 1.24355,-1.190625 v -0.07937 c 0,-0.926041 0.29104,-1.27 1.27,-1.27 0.68791,0 1.27,-0.555625 1.27,-1.27 -10e-6,-0.661458 -0.55563,-1.21708344 -1.24355,-1.21708344 z M 9.8519458,3.2973815 h -0.10583 c -1.11125,0 -1.27,-0.264583 -1.27,-1.27 0,-0.687917 -0.55562,-1.27000044 -1.2700003,-1.27000044 -0.68792,0 -1.27,0.55562544 -1.27,1.27000044 0,1.005417 -0.15875,1.243542 -1.27,1.243542 h -0.10583 c -0.635,0.05292 -1.13771,0.582083 -1.13771,1.243541 0,0.687917 0.55562,1.27 1.27,1.27 0.66146,0 1.21708,-0.529166 1.24354,-1.164166 v -0.07937 c 0,-0.926042 0.29104,-1.27 1.27,-1.27 0.9789603,0 1.2700003,0.343958 1.2700003,1.243541 0,0.687917 0.55563,1.27 1.27,1.27 0.7143802,0 1.2700002,-0.555625 1.2700002,-1.27 -0.0265,-0.635 -0.52917,-1.164166 -1.1641702,-1.217083 z"
       class="st0" />
  </g>
</svg>
