<?xml version="1.0" encoding="UTF-8" standalone="no"?>
<svg
   xmlns:dc="http://purl.org/dc/elements/1.1/"
   xmlns:cc="http://creativecommons.org/ns#"
   xmlns:rdf="http://www.w3.org/1999/02/22-rdf-syntax-ns#"
   xmlns:svg="http://www.w3.org/2000/svg"
   xmlns="http://www.w3.org/2000/svg"
   xmlns:sodipodi="http://sodipodi.sourceforge.net/DTD/sodipodi-0.dtd"
   xmlns:inkscape="http://www.inkscape.org/namespaces/inkscape"
   id="Layer_1"
   viewBox="0 0 130 87"
   version="1.1"
   sodipodi:docname="NANO.svg"
   width="130"
   height="87"
   inkscape:version="0.92.2 (5c3e80d, 2017-08-06)">
  <metadata
     id="metadata17">
    <rdf:RDF>
      <cc:Work
         rdf:about="">
        <dc:format>image/svg+xml</dc:format>
        <dc:type
           rdf:resource="http://purl.org/dc/dcmitype/StillImage" />
        <dc:title></dc:title>
      </cc:Work>
    </rdf:RDF>
  </metadata>
  <defs
     id="defs15" />
  <sodipodi:namedview
     pagecolor="#ffffff"
     bordercolor="#666666"
     borderopacity="1"
     objecttolerance="10"
     gridtolerance="10"
     guidetolerance="10"
     inkscape:pageopacity="0"
     inkscape:pageshadow="2"
     inkscape:window-width="1614"
     inkscape:window-height="861"
     id="namedview13"
     showgrid="false"
     inkscape:zoom="3.1426968"
     inkscape:cx="70.003503"
     inkscape:cy="8.968777"
     inkscape:window-x="0"
     inkscape:window-y="26"
     inkscape:window-maximized="0"
     inkscape:current-layer="Layer_1" />
  <style
     id="style2">.st0{fill:#4a90e2}.st1{fill:#000034}</style>
  <g
     id="g40">
    <g
       style="fill:#000000;stroke-width:0.51990134"
       transform="matrix(1.9234419,0,0,1.9234419,0.954594,-0.229712)"
       id="g21">
      <circle
         style="fill:#000000;stroke-width:0.51990134"
         class="st0"
         cx="4.8000002"
         cy="24.4"
         r="4.8000002"
         id="circle4" />
      <path
         style="fill:#000000;stroke-width:0.51990134"
         inkscape:connector-curvature="0"
         class="st0"
         d="m 62,0.6 c -2.6,0 -4.8,2.1 -4.8,4.8 0,3.8 -0.6,4.8 -4.8,4.8 H 52 c -2.4,0.2 -4.3,2.2 -4.3,4.7 V 15 c 0,3.7 -0.7,4.6 -4.8,4.6 -0.2,0 -0.4,0 -0.5,0.1 -2.4,0.3 -4.3,2.3 -4.3,4.7 0,2.6 2.1,4.8 4.8,4.8 2.5,0 4.6,-2 4.7,-4.4 v -0.4 c 0,-3.4 1.1,-4.7 4.7,-4.8 h 0.1 c 2.5,0 4.6,-2 4.7,-4.5 v -0.3 c 0,-3.5 1.1,-4.8 4.8,-4.8 2.6,0 4.8,-2.1 4.8,-4.8 0,-2.5 -2.1,-4.6 -4.7,-4.6 z m -28.2,9.6 h -0.4 c -4.2,0 -4.8,-1 -4.8,-4.8 0,-2.6 -2.1,-4.8 -4.8,-4.8 -2.6,0 -4.8,2.1 -4.8,4.8 0,3.8 -0.6,4.7 -4.8,4.7 h -0.4 c -2.4,0.2 -4.3,2.2 -4.3,4.7 0,2.6 2.1,4.8 4.8,4.8 2.5,0 4.6,-2 4.7,-4.4 v -0.3 c 0,-3.5 1.1,-4.8 4.8,-4.8 3.7,0 4.8,1.3 4.8,4.7 0,2.6 2.1,4.8 4.8,4.8 2.7,0 4.8,-2.1 4.8,-4.8 -0.1,-2.4 -2,-4.4 -4.4,-4.6 z"
         id="path6" />
    </g>
    <path
       class="st1"
       d="m 22.431932,58.081804 c -0.3,0 -0.6,0.1 -0.8,0.4 -0.2,0.2 -0.3,0.5 -0.3,0.9 v 22.9 l -17.5,-23.6 c -0.3,-0.4 -0.6,-0.6 -1,-0.6 -0.4,0 -0.7,0.1 -0.9,0.4 -0.2,0.2 -0.3,0.5 -0.3,0.9 v 26 c 0,0.4 0.1,0.7 0.3,0.9 0.2,0.2 0.5,0.3 0.9,0.3 0.3,0 0.6,-0.1 0.8,-0.4 0.2,-0.2 0.3,-0.5 0.3,-0.9 v -22.8 l 17.5,23.6 c 0.3,0.4 0.7,0.6 1.1,0.6 0.4,0 0.7,-0.1 0.9,-0.4 0.2,-0.2 0.3,-0.5 0.3,-0.9 v -26 c 0,-0.4 -0.1,-0.7 -0.3,-0.9 -0.3,-0.3 -0.6,-0.4 -1,-0.4 z m 91.999998,-0.8 c -8.1,0 -14.699998,6.6 -14.699998,14.7 0,8.1 6.599998,14.7 14.699998,14.7 8.1,0 14.7,-6.6 14.7,-14.7 0,-8.1 -6.6,-14.7 -14.7,-14.7 z m 0,27 c -6.8,0 -12.3,-5.5 -12.3,-12.3 0,-6.8 5.5,-12.3 12.3,-12.3 6.8,0 12.3,5.5 12.3,12.3 0,6.8 -5.5,12.3 -12.3,12.3 z m -24.299998,-26.2 c -0.3,0 -0.6,0.1 -0.8,0.4 -0.2,0.2 -0.3,0.5 -0.3,0.9 v 22.9 l -17.5,-23.6 c -0.3,-0.4 -0.6,-0.6 -1,-0.6 -0.4,0 -0.7,0.1 -0.9,0.4 -0.2,0.2 -0.3,0.5 -0.3,0.9 v 26 c 0,0.4 0.1,0.7 0.3,0.9 0.2,0.2 0.5,0.3 0.9,0.3 0.3,0 0.6,-0.1 0.8,-0.4 0.2,-0.2 0.3,-0.5 0.3,-0.9 v -22.8 l 17.5,23.6 c 0.3,0.4 0.7,0.6 1.1,0.6 0.4,0 0.7,-0.1 0.9,-0.4 0.2,-0.2 0.3,-0.5 0.3,-0.9 v -26 c 0,-0.4 -0.1,-0.7 -0.3,-0.9 -0.3,-0.3 -0.6,-0.4 -1,-0.4 z m -42.3,0.8 c -0.1,-0.3 -0.3,-0.5 -0.5,-0.6 -0.3,-0.2 -0.5,-0.2 -0.8,-0.2 -0.6,0 -1.1,0.3 -1.3,0.9 l -11.7,26.2 c -0.1,0.1 -0.1,0.3 -0.1,0.4 0,0.3 0.1,0.6 0.3,0.8 0.2,0.2 0.5,0.3 0.8,0.3 0.5,0 0.9,-0.3 1.1,-0.8 l 3.1,-7 h 15.5 l 3,7 c 0.1,0.2 0.3,0.4 0.5,0.6 0.2,0.1 0.4,0.2 0.6,0.2 0.3,0 0.6,-0.1 0.8,-0.3 0.2,-0.2 0.4,-0.4 0.4,-0.7 0,-0.2 0,-0.3 -0.1,-0.5 z m -8.2,17.9 6.8,-15.5 6.8,15.5 z"
       id="path8"
       inkscape:connector-curvature="0"
       style="fill:#000000" />
  </g>
</svg>
